# xmcd
#
# Track frame offsets:
#	150
#	35350
#	104321
#	153549
#	206852
#	228038
#	273281
#	308023
#
# Disc length: 4440 seconds
#
# Revision: 0
# Processed by: cddbd v1.5.2PL0 Copyright (c) Steve Scherf et al.
# Submitted via: audiograbber 1.83.01
#
DISCID=60115608
DTITLE=Grateful Dead - 93-06-09 The Palace, Auburn Hills MI
DYEAR=1900
DGENRE=
TTITLE0=Wave To The Wind
TTITLE1=Terrapin Station
TTITLE2=Drums
TTITLE3=Space
TTITLE4=I Need A Miracle
TTITLE5=Wharf Rat
TTITLE6=Around and Around
TTITLE7=Liberty
EXTD=
EXTT0=
EXTT1=
EXTT2=
EXTT3=
EXTT4=
EXTT5=
EXTT6=
EXTT7=
PLAYORDER=
